<svg viewBox="0 0 100 100" xmlns="http://www.w3.org/2000/svg">
  <defs>
    <linearGradient id="teal" x1="0" y1="0" x2="1" y2="1">
      <stop offset="0%" stop-color="#5dd8d0"/>
      <stop offset="100%" stop-color="#00b4aa"/>
    </linearGradient>
    <!-- Arc paths for text -->
    <path id="topArc-iso" d="M 16,50 A 34,34 0 0,1 84,50" fill="none"/>
    <path id="botArc-iso" d="M 17,56 A 35,35 0 0,0 83,56" fill="none"/>
  </defs>

  <!-- Outer scalloped disc -->
  <path d="M 50.00,3.00 Q 50.00,3.00 51.83,5.58 Q 53.66,8.16 55.91,5.94 Q 58.16,3.71 59.52,6.57 Q 60.87,9.43 63.47,7.63 Q 66.07,5.83 66.91,8.88 Q 67.75,11.94 70.62,10.62 Q 73.50,9.30 73.80,12.45 Q 74.09,15.60 77.15,14.80 Q 80.21,14.00 79.95,17.15 Q 79.70,20.30 82.85,20.05 Q 86.00,19.79 85.20,22.85 Q 84.40,25.91 87.55,26.20 Q 90.70,26.50 89.38,29.38 Q 88.06,32.25 91.12,33.09 Q 94.17,33.93 92.37,36.53 Q 90.57,39.13 93.43,40.48 Q 96.29,41.84 94.06,44.09 Q 91.84,46.34 94.42,48.17 Q 97.00,50.00 94.42,51.83 Q 91.84,53.66 94.06,55.91 Q 96.29,58.16 93.43,59.52 Q 90.57,60.87 92.37,63.47 Q 94.17,66.07 91.12,66.91 Q 88.06,67.75 89.38,70.62 Q 90.70,73.50 87.55,73.80 Q 84.40,74.09 85.20,77.15 Q 86.00,80.21 82.85,79.95 Q 79.70,79.70 79.95,82.85 Q 80.21,86.00 77.15,85.20 Q 74.09,84.40 73.80,87.55 Q 73.50,90.70 70.62,89.38 Q 67.75,88.06 66.91,91.12 Q 66.07,94.17 63.47,92.37 Q 60.87,90.57 59.52,93.43 Q 58.16,96.29 55.91,94.06 Q 53.66,91.84 51.83,94.42 Q 50.00,97.00 48.17,94.42 Q 46.34,91.84 44.09,94.06 Q 41.84,96.29 40.48,93.43 Q 39.13,90.57 36.53,92.37 Q 33.93,94.17 33.09,91.12 Q 32.25,88.06 29.38,89.38 Q 26.50,90.70 26.20,87.55 Q 25.91,84.40 22.85,85.20 Q 19.79,86.00 20.05,82.85 Q 20.30,79.70 17.15,79.95 Q 14.00,80.21 14.80,77.15 Q 15.60,74.09 12.45,73.80 Q 9.30,73.50 10.62,70.62 Q 11.94,67.75 8.88,66.91 Q 5.83,66.07 7.63,63.47 Q 9.43,60.87 6.57,59.52 Q 3.71,58.16 5.94,55.91 Q 8.16,53.66 5.58,51.83 Q 3.00,50.00 5.58,48.17 Q 8.16,46.34 5.94,44.09 Q 3.71,41.84 6.57,40.48 Q 9.43,39.13 7.63,36.53 Q 5.83,33.93 8.88,33.09 Q 11.94,32.25 10.62,29.38 Q 9.30,26.50 12.45,26.20 Q 15.60,25.91 14.80,22.85 Q 14.00,19.79 17.15,20.05 Q 20.30,20.30 20.05,17.15 Q 19.79,14.00 22.85,14.80 Q 25.91,15.60 26.20,12.45 Q 26.50,9.30 29.38,10.62 Q 32.25,11.94 33.09,8.88 Q 33.93,5.83 36.53,7.63 Q 39.13,9.43 40.48,6.57 Q 41.84,3.71 44.09,5.94 Z" fill="#1e2a56"/>

  <!-- Mid ring -->
  <circle cx="50" cy="50" r="39" fill="#232f63" stroke="#2a3870" stroke-width="0.5"/>

  <!-- Inner dark circle -->
  <circle cx="50" cy="50" r="26" fill="#141e3a"/>

  <!-- Scrut petal logo -->
  <path transform="rotate(0 50 50)"
      d="M 50,49.2
         C 55.6,43.28 56.72,48.4 50,52.88
         C 43.28,48.4 44.4,43.28 50,49.2 Z"
      fill="url(#teal)"/><path transform="rotate(120 50 50)"
      d="M 50,49.2
         C 55.6,43.28 56.72,48.4 50,52.88
         C 43.28,48.4 44.4,43.28 50,49.2 Z"
      fill="url(#teal)"/><path transform="rotate(240 50 50)"
      d="M 50,49.2
         C 55.6,43.28 56.72,48.4 50,52.88
         C 43.28,48.4 44.4,43.28 50,49.2 Z"
      fill="url(#teal)"/>

  <!-- Certification name (curved, top) -->
  <text fill="white" font-size="8" font-weight="800"
        font-family="Arial,Helvetica,sans-serif" letter-spacing="0.5">
    <textPath href="#topArc-iso" startOffset="50%" text-anchor="middle">ISO 27001</textPath>
  </text>

  <!-- "Monitored on Scrut" (curved, bottom) -->
  <text fill="#8892b0" font-size="5" font-family="Arial,Helvetica,sans-serif">
    <textPath href="#botArc-iso" startOffset="50%" text-anchor="middle">Monitored on Scrut</textPath>
  </text>
</svg>