<?xml version="1.0" encoding="UTF-8"?>
<svg id="Layer_1" data-name="Layer 1" xmlns="http://www.w3.org/2000/svg" viewBox="0 0 1718.76 552.46">
  <defs>
    <style>
      .cls-1 {
        fill: #fff;
      }
    </style>
  </defs>
  <g id="NmZQQn.tif">
    <g>
      <path class="cls-1" d="M741.47,234l-20.03,210.11c-13.49-1-26.22-1.23-40.52-.04l9.9-52.7,29.22-216.97,6.74-46.98c13.7,1.33,25.73.91,38.84.18l104.71,219.05,76.9-156.94,30.53-61.58c13.92.88,26.14.42,39.6-1.44l9.16,75.03,29.64,242.38c-24.47-1.61-48.44-1.83-73.19,1.15l-21.39-211.57-44.72,93.88-42.13,85.38-14.88,32.39-17.16.06-101.23-211.42Z"/>
      <path class="cls-1" d="M232.43,444.27l-57.07,1.2-38.44-1.29c-16.58-.56-32.3.3-49.02,1.41l2.02-24.6,1.42-55.94-.13-148.41-1.38-70.87c-.13-6.46-1.5-13.19-2-19.85l47.14.98,86.86-.98c48.04-.54,92.65,4.77,127.05,41.66,18.83,20.19,30.87,44.81,35.92,72.04,13.89,74.88-15.39,151.55-84.22,187.89-21.21,11.19-43.68,16.26-68.16,16.77ZM311.8,241.46c-6.05-39.95-27.23-71.78-67.34-83.32-14.64-3.82-29.2-5.85-44.55-5.86l-39.61-.02-.5,136.09.46,130.6,42.61.02c15.44,0,30.02-2.49,44.42-7.63,18.25-6.79,33.2-18.51,43.93-34.8,24.17-36.67,26.97-92.85,20.57-135.08Z"/>
      <path class="cls-1" d="M1137.59,450.46c-32.27-4.87-50.36-23.91-53.1-55.58-1.85-21.4,6.75-40.77,24.55-53.15,33.86-23.54,66.93-12.58,91.6-34.87,11.12-10.04,12.15-24.99,2.57-36.88-10.74-13.34-28.31-19.82-46.03-18.52-17.21,1.27-32.37,9.4-44.58,21.26-1.85,1.79-4.58,2.9-6.97,2.55l-5.51-28.61c23.84-15.42,54.29-29.85,82.55-30.69,13.25-.39,25.99,1.68,38.65,5.33,34.28,9.88,48.48,41.38,48.48,74.91v98.85s-.44,16.07-.44,16.07c-.4,14.49,15.59,18.57,27.64,18.22l-1.27,11.39c-22.44,12.37-52.51,20.27-72.6-.86-5.62-5.91-9.41-12.6-13.93-20.21-16.18,23.94-43.23,35.08-71.63,30.79ZM1180.36,419.43c10.91-1.75,19.12-7.95,22.85-18.35,3.4-9.5,5.09-19.8,5.47-30.18l1.66-44.24-15.29,5.7c-20.08,7.48-41.7,15.78-46.13,40.15-1.69,9.29-1.26,18.85.99,27.82,3.5,14,16.01,21.42,30.46,19.11Z"/>
      <path class="cls-1" d="M1630.35,432.65l-.81,9.71-21.47,6.84c-8.75,2.79-17.87,2.71-27.06,2.89-9.85.2-18.9-1.14-27.91-5.06-23.29-10.13-28.44-31.1-28.45-55.11l-.02-144.16-29.92.81c1.15-8.65,1.11-15.59-.01-24.44l31.33,1.87-1.61-57.35,65.8-29.45-2.29,39.5-.06,48.13h15.14c8.11,0,16.08-.99,24.18-3.12-1.15,8.25-1.23,16.34.09,24.74l-42.02-.91v141.41c0,6.58.58,12.49,1.33,18.74,1.28,10.64,9.54,18.24,20.31,19.43,8.39.93,15.7-1,24.01-3.8l-.57,9.33Z"/>
      <path class="cls-1" d="M1330.47,444.93l4.34-107.65c1.02-25.4.54-49.54-.11-74.75l-3.92-39.18c21.07,1.45,40.59,1.64,62.05-.01l.87,54.97,16.69-32.31c14.56-23.19,33.92-27.98,60.31-28.21-2.81,21.5-3.54,41.15-1.86,61.75-.82,1.59-3.06,3.68-4.76,4.7-17.55-5.82-41.84-6.28-55.94,7.15-9.08,8.64-12.7,20.37-12.95,32.98-.08,40.45.6,79.96,3.39,120.78l-68.1-.22Z"/>
      <polygon class="cls-1" points="651.4 443.67 378.94 443.67 384.13 430.73 646.22 430.73 651.4 443.67"/>
      <path class="cls-1" d="M515.19,160.71c-1.64,19.65-20.83,40.45-36.9,51.8l17.73-36.32c3.41-6.99,1.35-13.83-5.67-17.15l-34.14-16.14,36.45,3.82c7.24.76,13.24-2.98,14.75-10.2l7.75-37.07,7.75,37.17c4.04,19.38,36.04,4.47,51.1,6.4l-34.59,16.33c-6.45,3.04-8.7,9.85-5.53,16.36l17.82,36.63c-15.64-11.09-34.92-31.91-36.53-51.63Z"/>
      <path class="cls-1" d="M637.07,410.01h-243.79c1.14-3.79,2.6-7.28,4.59-11.44h234.01c2.37,3.31,3.54,6.25,5.19,11.44Z"/>
      <path class="cls-1" d="M622.81,377.57h-215.66c.64-3.42,2.04-6.71,3.96-10.2h208.09c1.7,3.32,2.57,5.14,3.62,10.2Z"/>
      <path class="cls-1" d="M610.26,346.43l-190.39-.02c1.35-3.81,2.37-6.24,3.94-9.19h182.7c1.57,2.95,2.54,5.31,3.76,9.21Z"/>
      <path class="cls-1" d="M597.59,316.28h-164.96c1-3.1,1.93-5.33,3.35-8.21l157.69-.02c2.02,2.34,3.21,5.11,3.92,8.22Z"/>
      <path class="cls-1" d="M585.27,287.12h-139.93c.23-2.2,1.11-4.43,2.6-7.22h134.53c1.25,2.66,1.95,4.45,2.8,7.22Z"/>
      <path class="cls-1" d="M573.04,258.91h-115.77c-.15-2.28.82-4.67,2.46-6.45h110.82c1.44,1.79,2.33,3.81,2.49,6.45Z"/>
      <path class="cls-1" d="M561.61,231.74h-92.89c.05-2.21.72-3.89,2.15-5.46l88.51.05c1.11,1,2.05,3.32,2.24,5.41Z"/>
      <path class="cls-1" d="M488.1,120.03c4.56-1.33,9.41,1.46,10.53,5.51,1.25,4.51-.96,8.86-5.51,10.47-3.84,1.36-8.6-.84-10.15-4.3-2.22-4.95.03-10.19,5.13-11.67Z"/>
      <path class="cls-1" d="M537.67,120.06c5.03-1.43,9.34,1.53,10.46,6.04,1.03,4.11-1.45,8.7-5.98,10.01-3.94,1.14-8.56-1.17-9.95-4.66-1.91-4.75.05-9.85,5.48-11.4Z"/>
    </g>
  </g>
</svg>
