<?xml version="1.0" encoding="UTF-8"?>
<svg id="Layer_1" data-name="Layer 1" xmlns="http://www.w3.org/2000/svg" viewBox="0 0 623.53 523.38">
  <defs>
    <style>
      .cls-1 {
        fill: #fff;
      }
    </style>
  </defs>
  <g id="_2MCLQD.tif" data-name="2MCLQD.tif">
    <g>
      <path class="cls-1" d="M289.83,365.72c16.88,38.52,1.12,70.02-26.47,98.49-27.13-27.98-48.17-61.43-27.63-100.09,12.21-22.98,20.4-46.63,26.9-72.45,2.6,12.28,5.25,23.6,10.17,34.9l17.04,39.15Z"/>
      <path class="cls-1" d="M331.5,59.17c26.87,0,79.2,19,105.4,36.56,41.03,27.51,70.89,68.86,85.67,115.87,5.32,16.92,7.28,32.81,7.59,50.42,1.2,69.63-30.15,130.54-85.44,171.96-14.4,10.79-32.2,13.61-49.17,7.82-4.94-1.68-8.33-4.47-11.95-8.39l-86.09-92.88,20.05-.8c15.12-.6,28.75-8.75,39.67-19.02,14.98-14.1,21.42-33.34,19.01-53.57-2.35-19.73-13.36-35.86-31.53-44.68-34.23-16.62-74.89-10.9-104.31,13.48-23.3,19.31-38.41,46.19-43.5,76.19-5.63,35.02-2.31,69.39,8.29,103,5.41,17.17,12.17,32.65,22.78,47.57-83.72-34.88-138.47-112.15-134.39-203.79,1.33-29.98,8.54-58.72,22.79-85.18,17.71-32.89,43.48-59.95,74.59-80.25,13.65-8.9,27.41-14.93,42.55-20.64,19.77-7.46,39.66-11.21,60.04-13.68h37.97Z"/>
    </g>
  </g>
</svg>
